<?xml version="1.0" encoding="UTF-8"?>
<svg width="800" height="600" xmlns="http://www.w3.org/2000/svg">
  <!-- France -->
  <path id="Ile_De_France" d="M100,100 L200,100 L200,200 L100,200 Z" fill="#4e7290"/>
  <path id="Normandy" d="M200,100 L300,100 L300,200 L200,200 Z" fill="#4e7290"/>
  <path id="Brittany" d="M300,100 L400,100 L400,200 L300,200 Z" fill="#4e7290"/>
  
  <!-- Prussia -->
  <path id="Brandenburg" d="M100,300 L200,300 L200,400 L100,400 Z" fill="#2a4163"/>
  <path id="East_Prussia" d="M200,300 L300,300 L300,400 L200,400 Z" fill="#2a4163"/>
  <path id="Silesia" d="M300,300 L400,300 L400,400 L300,400 Z" fill="#2a4163"/>
  <path id="Rhineland" d="M400,300 L500,300 L500,400 L400,400 Z" fill="#2a4163"/>
  <path id="Ruhr" d="M500,300 L600,300 L600,400 L500,400 Z" fill="#2a4163"/>
</svg> 